<svg width="600" height="420" viewBox="0 0 600 420" xmlns="http://www.w3.org/2000/svg" role="img" aria-label="Deployment art">
  <defs>
    <linearGradient id="bg" x1="0" y1="0" x2="1" y2="1">
      <stop offset="0%" stop-color="#dbeafe"/>
      <stop offset="100%" stop-color="#ecfeff"/>
    </linearGradient>
    <linearGradient id="box" x1="0" y1="0" x2="1" y2="1">
      <stop offset="0%" stop-color="#0ea5e9"/>
      <stop offset="100%" stop-color="#22c55e"/>
    </linearGradient>
  </defs>

  <rect x="0" y="0" width="600" height="420" rx="24" fill="url(#bg)"/>

  <g fill="none" stroke="#94a3b8" stroke-width="4">
    <path d="M90 300 C180 240, 280 240, 370 300"/>
    <path d="M230 300 C300 245, 380 245, 460 300"/>
  </g>

  <g>
    <rect x="80" y="110" width="120" height="86" rx="14" fill="#0f172a"/>
    <rect x="240" y="70" width="120" height="86" rx="14" fill="#1d4ed8"/>
    <rect x="400" y="120" width="120" height="86" rx="14" fill="#0f766e"/>

    <path d="M200 153 H240" stroke="#334155" stroke-width="6"/>
    <path d="M360 113 H400" stroke="#334155" stroke-width="6"/>
  </g>

  <g>
    <circle cx="300" cy="300" r="56" fill="url(#box)"/>
    <path d="M276 300 L295 319 L326 282" fill="none" stroke="white" stroke-width="10" stroke-linecap="round" stroke-linejoin="round"/>
  </g>
</svg>
